<svg width="512" height="512" viewBox="0 0 512 512" fill="none" xmlns="http://www.w3.org/2000/svg" xmlns:xlink="http://www.w3.org/1999/xlink" class=""><rect id="_r_3b_" width="512" height="512" x="0" y="0" rx="0" fill="url(#_r_3c_)" stroke="#FFFFFF" stroke-width="0" stroke-opacity="100%" paint-order="stroke"></rect><clipPath id="clip"><use xlink:href="#_r_3b_"></use></clipPath><defs><radialGradient id="_r_3c_" cx="50%" cy="50%" r="100%" fx="0%" fy="50%" gradientUnits="objectBoundingBox"><stop stop-color="#3A3344"></stop><stop offset="1" stop-color="#1F1C23"></stop></radialGradient><radialGradient id="_r_3d_" cx="0" cy="0" r="1" gradientUnits="userSpaceOnUse" gradientTransform="translate(256) rotate(90) scale(512)"><stop stop-color="white"></stop><stop offset="1" stop-color="white" stop-opacity="0"></stop></radialGradient></defs>

<svg width="352" height="352" viewBox="0 0 32 32" version="1.1" xmlns="http://www.w3.org/2000/svg" xmlns:xlink="http://www.w3.org/1999/xlink" xml:space="preserve" xmlns:serif="http://www.serif.com/" x="80" y="80" alignment-baseline="middle" style="color: rgb(255, 255, 255); width: 352px; height: 352px;">
    <g transform="matrix(0.125,0,0,0.125,0,0)">
        <path d="M226.76,69C225.54,65.985 222.597,64 219.344,64C217.335,64 215.397,64.758 213.92,66.12L173.62,103.31L156.39,99.61L152.69,82.38L189.88,42.08C191.242,40.603 192,38.665 192,36.656C192,33.403 190.015,30.46 187,29.24C178.421,25.77 169.254,23.986 160,23.986C120.502,23.986 88,56.488 88,95.986C88,95.991 88,95.995 88,96C87.987,105.957 90.03,115.809 94,124.94L33.79,177C33.64,177.12 33.5,177.26 33.36,177.39C27.36,183.39 23.986,191.535 23.986,200.02C23.986,217.577 38.433,232.024 55.99,232.024C64.475,232.024 72.62,228.65 78.62,222.65C78.75,222.52 78.89,222.37 79.01,222.23L131.06,162C140.182,166.004 150.037,168.072 160,168.072C199.498,168.072 232,135.57 232,96.072C232,96.048 232,96.024 232,96C232.016,86.746 230.236,77.576 226.76,69ZM160,152C150.531,151.987 141.218,149.579 132.93,145C129.633,143.178 125.474,143.921 123.01,146.77L67.11,211.51C64.137,214.334 60.19,215.91 56.09,215.91C47.312,215.91 40.09,208.688 40.09,199.91C40.09,195.81 41.666,191.863 44.49,188.89L109.18,133C112.035,130.535 112.777,126.37 110.95,123.07C106.364,114.776 103.958,105.451 103.958,95.974C103.958,65.253 129.237,39.974 159.958,39.974C163.092,39.974 166.22,40.237 169.31,40.76L138.11,74.57C136.35,76.479 135.625,79.131 136.17,81.67L141.83,108C142.49,111.07 144.9,113.48 147.97,114.14L174.32,119.8C176.859,120.345 179.511,119.62 181.42,117.86L215.23,86.66C215.745,89.727 216.003,92.831 216.003,95.94C216.003,126.672 190.732,151.969 160,152Z" style="fill: white; fill-rule: nonzero;"></path>
    </g>
</svg>
</svg>